<svg xmlns="http://www.w3.org/2000/svg" viewBox="0 0 800 453">
  <path fill="#121313" d="M40 183.8l14.5 1 4.3-1.6 37.7-30.8 8.4-9.1.2-3.9-4.5-.8-1.8-3-.5-6.7-8.4-.4-7.4 4-1.6-.7-1.7-4.7 1.5.1.6 3.6 1.2 1.1 7.4-4.4 6.8-.4 3.1 1.9.5 6 4.5.8 3.5-1.2 1-3.1 7.7-9 .1-8.7 1.3-2 3.4-11.5.8-3.7 11.5-5.3-2-.5-3.2-2 1.3-1.5 3.5 1.2 3-1.8-2-1.8.4-2.4-3.3.4-.8-5 3-1.1.7 3.8 1.8 2 5.1-.5 5-7.6-2.1-5 1.9-.8 1.2-5.1 3.4-1.8-1.3-2.2.8-2.8 2.4-.3 2-4 .4-4.9-3.5-1.7-1.5 5.4-1.3.5 1-5.4 1.5-1.8 5.2 2 1.8-.4 2.3 4.8 1.7-1.7 2.7.6 1.3-3.2 3.7-2.4 1 1.3 5.1.5-.5-4.2 2.5-1 8.1-6.3 1.5-2.2-.5-2.4-6-.2-3.7-1.1-5.2-5.4-1-2.6-3.5 7.1-.7-.3 3-5.3.7-4.7-7.7-5.4-4.3-.5-4.3 1.7-2 3-3.5.9-3.7-1.5-2.4-3 1.7-1.3 6 3.2 3.3-3.3 4.6-1.5 5.3.6 8.8 5.6 4.7 9.2 4 1.8 7.5-3h6.2l9.5-6.3 8.6-1.6 2.5-2.8-1.4-3.3-6.3 3-2.7-.4L195 1h1.8l10.1 10.6 2.4-1.6 5.2-8.7-10.8.7-4-1h24.2l1.9 13.3 10.5 9.7 6.2 2 .8-3.2 8.6 3.8.5-1.4 20.6 5.4.3 1.5 3-.4 2.6 1 5.7-2 1.1-3.7 2.9 1.8 2-.8 7.5-5-1.7-4.3 1-1.4 9.3-8 .8.5 4.2-3.3-.7-1.3 5.3-4.2h83.2l2 1.8 3.7 1.1 1.2 2.1L418 7.6l7.8-1.3-.2 3 4 2.6 6.4-6.6.8.7-5.1 6.6V16l1.7 4.2 6.3 8.7.9 3 3.7 4-.5.7 4.6 4.1 4.3 7.2 3.8 2.4-1.3 2.6 8.8 3.9v-2l5 .8 12.1 3.7 22.2 3.6.8-4.5-1.3-2.5 7.7.1 9.4 3.6 1.1-.7 6.7 1.4 2.6 2.8 9-1 1.2.5 10.3 2.3 2.4 3 5 1.7L574 68l2.4-1.5-3.7-7.7 3.4-9.3-1-3.3-4.8-3.5-7.5-1-2.1-2 .8-7.6 1.2 8.2 6.5.5 7.3 4.6 1 4.5-2.3 7.8 3.3 5.5 7.4.5 2-1.7 4.3-.5 3-2.3 3.9 2.2 8.7-7.2 2.2 3.2 2.3.7-1.5-6.5 4.4-4.6 2-1.2 6-5.7 2.5-7.1 1.5-1 1.2-6-1.5-1 2.3-12.8 2.4-6.8L628 4 626.2 1h61.6l-3.4 1.3-2 4.6-4.6 4.6-5.8 2.8 2.3 6 4.6 5.5 13.7 6.4 6.8-3.3 3.3.6 2.5-2.1 5.2-11.4 6-2.5-5-4.8-.5-5.3 3.1-.9 5.3 3.9-2.1-5.4 2.5.3 6.4 7.4-1.4 7-2.3 1.2-6.9-.4-3.5 2-4.3 10-7.8 7.3-1.2 5.8 5.1 2.8 14 2.8 16.4 10.3 1.7 2.2 9.3 6.4 4.3 7.9 5.6 3.5 5.2 5 .3 7.3 3 4.1 2 5.3 16.8-12.4 2.4-.4 6.2 1.4 8 6.7v5.2l-8.8-5.3-2.4-.5-4.4 1.8-3.7 4-1.6 3.9-4.3 15.8-7.2 2.3-6.9 7-3 1.3-1.6 2.8-2.6.5-2.8 5.2-3.3.3-.2 3.6-2.3 2.7-1.1 3.4-2.8 2.5 2.5 1 4-1 21.3 5.9 3.6 3 21.5 7.9 6.1 3.2-.4 250.6-1.6-3.7-5.1-4.2-1 .8-3.6-.9-17.5-9.3-6.7-5.2.5-2.9-2-3-1.1.6-5.6-1.1-1.9 2.5-2.7.3 2 5.2-.6 3.7-6.7 2.2.2-2 5.1-.3v-5l-2.2-1.5-9.9-2.7-4.9 1.2.4 2.6-.8 2.4-7.7 4.2-7.4 1.8-.4 1.8 1.8 1.6-1.3 4.3-2.2 1.7.2 1.9-4 8.4 1.2 2.7v6.6l2.9 3.8-.6 3.5 3.8-.2 7.2 5 6.2.9 1.8 2.3h-36.7l.2-4.1-6.2.5-3.2-2-2.4-.2.2-5.7 4.3-4.1-6.2-4.2-4.6 1-3.2-2 2.2-4-2.2-.8-2.8-5.2-7.5 3-4.6 4.5-2.2-2.8-10-.5 1.2-4.7-1.3-2 .7-6.4 2.8-1.4.4-4.4-2.5-5-2 4-8.1-.8-3 1.8-7.6.5-2.2 2.9-2.6-.1-2.1-2.2-3.6 2.7.6 1-7.4 9 4.2 1.7-.2 1.4-3.5.2-.2 3.1 7 1-.5 4-1.9-1.3-4.5-.3.4 5.4h4.7l.1 3.7-5.7 1.3 1.3 2.5-3.6 2.7 1.7 5.8-1.9.5h-128l-9-12-4.2-2.4-1.4.4 2.2 7.8 1.8 5.1-7.8.8-2.9-2.4-4.2-1-3.3 1-.2 2.7h-9.4l8.1-5.5-.7-2.4-4-1.6-2.2-2.6-3.8 1.4-.1 4.3-2.6 2.1-.6 2.4 2 1.9h-14l3.2-8-8.3 6.5 1 1.5H1V181.8l3.6-2.5 24.5 5.4 3.3-1 3.4 1.3 4.1-1.2zm-7.7 3.6l.4 8.1 3.8 8.9 1.5-.3 9.3-9.8 2.3-1.5 1.3-3.6-.6-1.5-7.5.6-1.1-1.1-9.4.2zM58 327.3l.5 4.2 8-.3 1 5.5 5.8.2 3 7.2-.7 6.9-3.3 1.3-.2 1.4-7.6 4.5-1.3 4.8 45 11.6-.2-.8-41.3-10.7-1.6-1.3 1.7-3.9h3l2.9-1.9 2.3-4 2.3-1.3.6-3-2.7-9.5 4-1 1.9-2-8.8-18.7v-3.8l19.2-9.3-.4-.6-10 4.8-.2-5.4 24.1-11.8.9.2-.4 5.4.6.5 2.7-28 1.5.5-1.4 3.3-.2 5h8.3l4-4.5-.1-4-16.6-31.2-4.2-5.4 3.1-6.8-3.5-4.3 18.5-19.5-18.4 20.2 7 6.2.6 1.3 4 2.9 4.1-3.3 5.2-5.3 3.2 3.2-8.3 8.7 5.1 5.8 6-7.6 4-1.5.9 1.9-4.9 5-5.9 6.7 1.4 1.7 3.6-3 .6 2.2 6.3 5.4.8 2.7 8.4 4.9 2.4 4.2 11.2-9-6.9-7.3-1-8.3 5.5-.7.7 6.4 7.7 7.8 4.6-1.8-1.4-13.3.6-3.6 2.4 1.7 1.2 13.7 14-2.6.2-7.8 2-2 3-.1 2.1 3.6 4.8 2v3l9-.3-.3-8 4.1 1.4.7 10 12-.4.7-1.8-7.8-6.7-4-1-.5-3 5.1.5 9.5 7.8 7.9 3.7-3-7.1-2.7.9-1.2-1 4.4-11 9.7-17.5-2.1-4.3h-4.7l-.9-1 1.8-7.6 3.2.3 2.7 2v-3.3l-3.5-2.4-3 2.6-1.8-3v-3.2l-3.3-2.5-2.6.1-1.8-1.6 1.3-2 2.9-.3 3.6 1.6 1.2-1 3 1.4 4.2 7.8 1.5 6.5-.5 1.5-5-3.4-3 5.4.5 1 5.3.2 2.1 5.3-2.5 9.1-6 8.8-1 3 .7 3.8 2.5 8.4 16 4.6 3.3-3.4 2 4.7 6.5 2.2 8.7-1.2 3.3-4.1 7.5 7.9-3.3 5.4 16.4 9.8-4.5 7.5-17.9-10.5-4.8.7-4 6.8 28.9 17.3 10.6-17.9 3.4 2-.9 1.7 10 6.4-12 20.6 9.8 5.9 14.3-22.9v1.6l8 5-.3 1 5.8 5 2.2-5.5 2.5 1.7h2.4l2-2 3.3 1.4 3.1 2.2 4.2-.1 1.1 1.2h6.6l10.7-6.1 10.6-.3 8.7 8.4 1.4-1.5-3.3-4 1.7-1.8 7.9 8.7 1.2-1-.7-3v-13.2l9.7 5-.7 1.4 4 5 1.3-.8-2.5-3.5 17-13.4-.8-4.6-5.7-4.8-11.4-4-5 9.3-2.7-3-.3-3.2 1.4-3.5-1.3-2.5 14.9.4 1-1.8-1.3-11 1.2-2.4 3.6-2.8v-6l3.3-4 .2-3.3-1.7-2.4.6-3.7-3.4-6.1.8-.5-.3-6.7-4.8-6.5 1.2-5.9-.6-4.7-9-7.3-1.5-10.8-10.5-12.2-.4-2.3-2.9-1-1-1.7L385 158l-9-4.6-9.1-.4-1.3-1.2-6.4 4.7-2.7-.2 5.6-4.1.6-2-6.2-3.2h-5l1.4-2.7 3.1-1 3.4.8 3.4 2.8 1.2-2.1h2.2l3.8 4.3-1.3 4.2 10 .7 6.8 3.8 13.3 3.2 1.3 2 2.4.7.3 2.3 10.7 12.5 1.3 10.1 8.9 7 1.1 5.6-1.4 5.6 4.6 6.2.8 9 2.8 4.4-.8 3 2.2 3.6-.4 4.7-2.5 2.9 1 1.6 3.5.7 2.1 5.2 5.6 1.1 10-8.7 7.9-2.2v.8l-7.7 1.7-7.6 8-3.3 2-6.7-1.6-2.1 1.4-6.2.1.4 6.7 3.4 7.7 6.7 8.2 3.1 2 6.3-4.6 5.4-4.4 1.7-.4 4.1-3.8 2-.1 6-4.8 3.7-.2 6-3.3 16.3-4.5 6-3 16.3-3.5 6-2.3 1.8.7 21-7.9 9.6-1.6.6.7 10.4-4.8 2.1.7 8.5-2.6.6.6 6.6-1.2 1.5 1.7 2.5-1.9 7.1-.4 18.4-42.2-17 40.7 1 6.4-1.9 1.8 9.5-2.7 8.8 2.8 1.5 2 7.4-.2 8.2-5.1 2.6.4.8-1.7 16.4-.6-.1-6 8.2-.2.2 6 5.4-.4-.5-12.4h-13l-2.5-2-.7-2.5 1.5-3.7.2-4.9-16.2-6.8.7-.6 12 5.2 6 1.2 1.3-1.8 4-12.3 6-12.3 1.4-7 7 2.2 4.4 3.5 1.5 3.6 2.4-1.5-3.4-2.7-12-8.6-15.8-7.7-8.6-2.6-2.5-2.6-5 2-6-2.9.8-2.4 3.3-1.6-4-1.7-5.5-12.8-5-7.4-16.2-6-3 1.2-3.7-.6-7.8 1-4.3 2.6.9 4.3-4 .7-6.2 5 .4 3.1-3.5-1-6.6 1-8.8-.4-6.6-2-15.9-9.8-6.6-10.9-4.7-2.8-.5-2.6 1.8-1.6v-1.7L497 82.4l-3 1.5-.2-3.1-2-3.9h-6l-2 1.5-5 .4-6 4.4-1.4 3-2-1 1.8-4.1-1.4-3.3-11.4-7-1-.2-11.2-7.6-4.4-1.3-3.8.7-5.4 3-2.1 3.2 1.6 2.2-1.6 1.4h-2.4l-6 2.7-7.6-3.5.5-3.8 2.5-1.4-.2-1.8 3-2.7 1-3-1.9-4.4-5.5-6.2h-2l-4.7 5.3-.5-1.7 5.9-6.4-1.5-5.4-1.5-1.7-2.8-.5-5.1 1.9-4.3-.3.3-8.8 1.5 5.6 1.6 1.4 5.7-3.6-2.3-5.3-7.8-4.3-16.2 10v-.6l16-10-12.7-7.5-4.1 6-1.3-.7 3.3-6-9.5-5.4-4.3 7.4-.6-3-3.2-1.6-3.8 3.4-1.6-.4 6-6.4-6.8-2.4-13.8.5-4.1 1.1-9 3.9-30 22-9.3 3.4-1.1-1.3-4.2 6.7.3 1.8h-3l-3.7 8-1-.8-10 .3-2.8 1.2-4.1.8-8.3-4.7-2.2 2-5.5-.2-1.4-5-5.4-3.3-2.1-3.6-2.7-2.7-3.4-.6-5.5 2.5-1.8-.5.5-2.6-2.2-1.4-8 1.5-5.7 2.2-7 4.9-6 6.2-3 1.6-6.6 6.6-3.7 2-6.7.7-3 1.5-.4 2.1-3.9-.9-3 3h-4.3l-1.9 4-3.3 2-1.5 5.6-1.3 2.5-.8 5.6-1.2 2.3v3l-4.5 3.6-3.2-.5-1.7 4.2-2.5.7 1.7 4.7-1.7 5.1.7 1-.3 7.4-2 6.2-1.8 3.2-3.7 2.5-.1 2.7-6.4 11.6-.8 2.2-3.8.1.3 1.7-8.5 15.7-4.4 3.4-3.7 9.2-1.7-.5-3.6 3.6.6 4.1 2.5.8-3.2 5.3.8 1.6L77 252.4l-1 .5-.8 4.3 4.9 8-.9 4.8-4.2 7.4-3.9 2.2-3 .2-1.7 6.3-4.3 6.6-1.1 5.3 3.7-4.9 3.6-.1 1.7 1.5-1.3 2.7 1.6 13.6-2.5-.4-.3 4-4.4.1-1 1.5 1 8h4.5l.7 1.5-2.6 2.1-7.6-.3zm72-37.7l2 4 2.2 1.7 2.2 4.6.2 3.5 3.3 7 3.5 5.9 1.4 1.6 3.3 7.5-.1.8-5.7 3 5.2 11 6.2.7 4.2 9-.2 1-5.1 5.2 2.6.9 21.7-22 1.3-4.5-6.4-22.6-8.1-7.4 6.7-7.7 6.7 5.9 5.6 5.2 3.6 13.5 15.2-5.4 9.8-5.6.2-2-13.1-7.4 2.6-4.7 5.7 2.6 10 5.6 3.9 3h2.2l6.1-6.1 3 1.2 1.2-2.9-.7-1.1-5-1.9-3-.4 4.5-4 3.2 1.2 4.6.8 1.3 1.4 7.8-3 2.6-3.4-6.3-6.3-1.9-.9-3.6-.2-7.6-7.3-.7-4.6-1.7-2.9-4.3-2.5-2 .2-3.2-1.2-.8 1.8-7-1.5-8.5-1.1-3.8 4.4 3.4 2.6 1.8 3.3-1.7.8 1.8 6.1 1.4 1.9 2.6.3.9 1.2-3.6 3.5-2.7-1-2.9-3-1.3-4.6-3.6-4.4-6 3.3-1 3.3-1.6.5.6 2.7-2.8 2.3-1.6-1.4-1.7 1.6-3.6 5-6.2-5.7 3.6-3.1 5.8-6.1 1.2-3.6 5.8-6.7-.3-.6-10.9.1-5.5 1.6-11.4 6.9-27.4 19.1v.5zm53.9-48.8l1.1 2.8.6 5 5.2.3.2-5.5-4.5-5-2.6 2.4zm17.8 141.8l.8 1 11.7 2.1 2.6.2 4.4-1h3.1l5.3 1 9.6-2.2-3.1-2-5.3-4.4 2.4-1.5-2-1.3-3.2.6-2.6-1.3-.4-2.7-3.1-1-4 2-6.9 1.5-3.1 3.9-5.6 3.8-.6 1.3zm14.5 26.1l1.7 1 1 6.7 3.6-1.7 3-2.4 5.4-.6 1-4.3 2.8-.2.7-2.4-8.2-2.2-2.7.5-1 4.2-3.5 1.3-3.8.1zm8-370.6l1.7.2 5.5-2.7-5.3-1-1.8 3.5zm6.6 156l1 1.5 4.8-1.9-1.8-3-2.4.5-1.6 2.8zm1.1 233.6l2-.2 2.6 2.6.9 3 2 2.5 2-.4 4.2 1.7 2-1-.5-3.6.4-4 2-2-2.8-1-3.5.4-5-2.3-5.2 2.2-1 2zm15.6-86.8l1 2.5 3 1.7 4.6.2 9 2 10.5 6 10.4 1.3 3-.4 2.7-3.4-1-1.7-4-2.1-5.1.2-5.2-1.6-1.4-2-1.6-5.4-1.9-.5-3 3.2-4.8-1.8-2.1-2-3.2-.6-5.5.9-5.4 3.5zm10.1 13.2l2.6 2.8 2.4-3.5-4.3-1.5-.7 2.2zm3.4-49.7l2.5 2.3 6.4 3 3.9 2.2 2.6-1.4-.9-1.8-3.6-3.4-3-2.1-4.1-1.6-3.8 2.8zm12.2 76.8l1.5 6.8 2.7 4.9 3.7-4.4 4-2.5 8.2 5.7 4.4 2.1 6-2.7 2.3-2 1.1-6.5-.8-6.5-2.4-2.2-6.5.4-8.3 3.5-4.5-1.7-2.3-1.8h-2.2l-2-3.7-2.3-2.6-1 6.6-1.3 2.8-.3 3.8zm2.6-44.8l1.6 7.2 3.8 1.8 5.5.7 4.8 1.8 2.3 2 1.3 4.4 8.2.4-2.7-6-4-4.2-3.4-2.7-1.2-.1-4.4-4.5-4.3-3.7-4.2-1.3-2.6.8-.7 3.4zm45.5 42l2.7 4.9 6.8 4 3.2 1.1.7-1.6-4.2-4.4-4-5.1-4.3-3.2-1 4.2zm20.9-73l4.5 5.1 1.4-.6 3.8 3.4 3.1 2 2.2 2.8 3.6 2.1 1.2-1.1 5.8 4.6-1.7 1 3.7 3.7 2.6.4 2.8 2.3.6 2.3 3.6 2.6 3-1.8.5-3.6 4-1.9.3 3-2 1.2.4 1.8 3.5-2.4-.5-3 1.1-3.2-.3-2.2 1.7-2.5 1.2 7.3 3.1-3 5.4-8.1.5-1.8-2.8-1.6-6 1.4-1.1-2-4.4-.6-1.7 1.3-3.8-.3-2-1.5-3-.4-5.2.2-2.8-1-2.8-3-7-3.6-2.6.2-2.6 1.3-3.2-.2-5-1.5-3.1 1zm4-6.5l1.7 1.6h4l-2.1-2.8-1.3 1.2h-2.3zm20.9 5.6l3.5 3.4 4 1.7 1.3-.2 8.4 2.6.3-1 4.5-2.2 3.9-1.2-8.9-8.4-8.2.3-8.8 5zm13 65.9l2.2.8 1.8-2.7-1.6-1-2.4 2.9zm13.8-12.3l7.1 7.6 1.6 2.5 2.4 1.3-.8-8.1 2.9-4 5.6 6.1 2.5-4.5-3-2.9-.3-3-2.6.3-.9-4.3 2.6-.2 3.1-1.3 1.2-2.2-2-1.3-1.5 2.6-2.6-.6-.9-1.6-3.2.9-1.8 1.5-1.7-2.1-1.4 2 2.5.9-.5 2.2h4.4l.2 7.4-2.8 3.2-8.5-4-1.6 1.6zm19.5-321.3l1.5.7 2.5 4.7.2 3.3L420 48l3 4.6 1.6 1.4 1.4-1.5-.2-2.3-6.3-9.6-4-3.9h-2.1zm147.4 63.8l-3.2 2.2-1.4 1.7.2 2.8 9-2.7.8 1 4.4-.4 1.1-1.7 2 .6 3.8-1.5 2-4.2 5.8-2.9L589 97l2.9-.7 1.2 1 3.2-1.1 8.4-.8-2.3-1.7.7-6.1 1-1.7-1-2.5-2.2-2-5.3-.9-3 1.3h-3.7l-2.4 1.1-5.6-2-.7 3.7-1.7 1.3-1.2 5.6h-3l3-.7h-3l-1.4-2.4L574 87l3.3-.1-.4-1.8 2-3.9-5.1-2-6.6 1-5.5 1.9-3.3.4-.4 2 2 .8 3-3 1.3 5.8-1.8-.4 1.3-2.9-1.3-1.5-3.3 2.6-2.2-3.4-3.2-.4-2.8-2.4-2.5 1-5.3-2v-2.3l-4.7-3.2-2-.2-11.9-4.7-2.9-.5-1.5 2H517l-1.6 2.7-3.7.9-.1 2.1 2.4 4.3 3.4 2.7 4.7-.9.3 3 7.4 1.7 2.6 2.7 5.3 1.8 3.4 2.3 4 4 2.2-1 4 4 1.1 2.5 3.8.3 5.1-4.9-.6 2.6zM538.5 96l3.9 4 2.4 3.8 3.1 2.7 2.7-1.2-1.4-2.8-6.4-2.5-2-3.5-2.3-.5zm42.2-28.4l2.2 2.5 2.4-.8V66l-2.6-.3-2 2zm47.3 10l.4 2.9 4 11.1 3.4 2.6 11.6.5 2.5-.7 3-3.6 3.5-.8.8 3.2-1.8 2.8.2 1.7 2.4 3.2-1.9 2.2-4.4 1.8-13.6-.3 2.4 3.2 2.5 1.6 6.8-2.7h4l3.1-1.6 3-3.3 4.3 1 3.4 4.3 1.6 6.2 3.4 1.5 4.2-.2 4.6 1.6 10.6-5.6-.4 1.1-10.2 6-4.6-2.1-2.9-.2-1 1.4 4.8 5.7 5 7.1 3.8 4.7 1.4.3 1.7 4.6 1.6.5 4.7-2 4.3-1 1.8-1.2 10.4-4.2 4.8-2.3 7-2 2.6-1.1 1.2-1.6 1.2-5-.2-3 2.1-6.5.2-3.6 1-1.5 1.3-7-1-.8-5.1 1-6.4 2.7-6 4.8-1-.9 6.4-4.8 7-3L735 95l1.2-2.2-2.6-4.4-1.3-3.3-3.3-5.1-4.2-2.8-7.2-6-4.2-2.8-6.7-2.5-9.2-4h-3.4l-2.6 3.3-2.2 1H686l-1-1-5.3-.3-2.3-2-3.4 3.3-.8 2-5 3.5H659l-1.5-1-1.7 1.1v4.7l1.4 4.3 1.4 2.4.7 5.5-5.5.2v-2l-1.6-5-1.9-2.8-5.2-2.1-1.8-3.5-3.1-3.2 1-1.6-2.8-3-2.8.4-5.2 4.9-1.3 1.9-1.1 5zM642.6 60l1.9-.2 3.4-3 5 1.2 5.9-1.2 3.6-1.6 1.4.3 4.8-1.2 1.7 3.1 8.5-.7 2 .3-2.7-5-2.5-2-6.4-.7-6.2 1.5-14 4.2-3.8 2.2-2.6 2.8zM663 138l16.2 14 1-1.4-8.4-7.6-7.3-5.1-1.5.1zM711.4 4.8l2.3 5.2 4 2.4.3 1.7 3.5.7 2-1.4.8-3.9-.4-1.7-3.2-1.7-3.1 1-3.8-4-2.4 1.7zM270.7 250.2l-4-9.2-1.5-2.7-2.7-2-4.6 1.2-2.4-1.1 2.9-2.7 6.2 1.1 4.1 4 4.2 9.5-2.2 2zM61.2 72.2l1.2-2 2.5.9.4 2.4-4-1.4zM71.8 300l3.9 1v2.6l4.4-1.2-.4 5.8-5.2 2.5V305l-2.7-5zM94.5 36.4l5.6 1.5-1.5 2-3.2-1.8-.9-1.7zm4.9 59.1l1.5-.8 2.7 3.2h2.8l-1.3 3.4-4.5-2.9-1.2-2.9zm4.7 83.7l4.1-11.7 4-3 9.1-17.1 1.5 1.8h2l2.9-3.1-1.4-3.1 6.3-12.6 1-.8 2.8 3 1.5-1 2.2 1 6.6-2.2 7.3.2.7 3 3.1 2.2 2.8-1 1.7-4.6 3.2 1.7v2.1l-2.7-.9-1.5 3 1 1.3-7.7-.7v3L150 142l3.7 4-.5 1.8 3.9.4-2 1.9-.5 3.8-3.4.7-.4-2.3-2-2.1.8-1.5-.7-3.4-17.5 1.6-1.7-1.3-5.2 6.6v2.3l2.4 2 .3 4.4 2.7 2.6-4 1.7-1.5-5.5-10.4 2.4v3.9l-5.7 2.1 4.6 7.8 10.8 9.4 2.8 9 2.5-1.7 2.3 2.2-5.3 3.2-2.2-.8-3.4-5.3 1-2.8-1-2.8-5.3 1-4.6-5.6-6.5-2.5zm43.1-77.3l3.9-6.1 2.5-2.1 4.6 3.8h2.8l.8-2-1.6-3.4 1.4-.8 2.2 5.6h3.6l.4 1.1-4.2 3-1.7 2.7-4-1.3.6 3.4 2.2-.6 1.6 4.7-2.7 2.4-1.5 6.6-3.6-4.8-4 5.8-.7-2.5 2.2-2-.5-2.5 1.7-.9-.4-3.2-5.6-6.9zm11.6-30.4l.8-1.6 2.3-.7 2.9 2.4 2-2-2-3 2.7-2 1 1.6 2.7.3 2.4 1.5 4.2.4 4.7 4-1.3 1.2-5.6-3.1-4.7-1-.5 6-2-3.3-1.4.7 1 3.4-4.7.1-1.5-2.7-3-2.2zm2 45.7l1.2-2 2.4 3.3-2.5.7-1.2-2zm1-11l2-2.2 1.4 1.7 2.8-.8-.6 2.5-2.2.4-.4 3-2-1.5-1-3zm1.9 10.3l2.4-1.2 3-3.5.3 3.5-1.2 2.3-3.5.8-1-2zm5.6.7l.7-1.9 2.6-.7-.3 3-3-.4zM190.1 63l3.3-5 1.2 2.1-3.2.3L190 63zm3 20.6l6 5.6 10.1-.6 2.7-2.8 2.2-.4 4.7 4.3 3.4.4 4.5-1.3-.5-2.9 4.7.7 2.5-.7 9-8.7 1.1-10.2 1-2.4-3-1.4 1.8-2.3 2.6-1-.7-3-2-1.7.1-2 8.6-.2 4.7 7.8 1.3 6-9.4 10.9 3.1 9.4-.7 7 3 3.7 9.7 1.6-.2.7-7.3-.7-5-3-1-3.5.6-6L248 81l-2.6 1.5-.5 1.8-2.8-.4-1.3 2.5-2.6.7-.8 4.5-3 .6-1 2.2 3.7 7.7 2.5 2-.6 1.6 4 7-2.2 8.4h-.8l-2.1 13.2-1.3-4.2 2.7-10.4-.3-6-1.5-1.9V109l-4.9-7.2-3 3v7.8l-3.3 4-5.1 2-3.5-1-4.5-5.6.6-.5 3.7 4.9 2.1 1 5.8-3.7.8-3.3-2.2-1 2-3.2.4-4.7 2.3-3.2v-3.6l-2.5-1.5-2.3 3.6-.2-4.7-8.8 2.8-.4-4-3.4-1.7-2.6 4.5-2 1 .3 4-2.5.7-4.7-3.5 7.5-3.4-1.6-1.8-4.1-.4-4.1 1.5.2-3.5-4.4-4.7zm48.5 146.8l.8-6.5 2-3.5L259 223l1 2-2.6 4.3v3l-2.3 4.8 2.2.9 3.4-1.3 1.4 2.5-2.5 3.2-5.5.1-12.5-12.2zm12.8-44l5.3 3 1 2.2 2 19 2.9 5.7-6.7 14.6-1.1.2 7.1-15.4-2.7-5.6-2-19.6-5.8-4.1zm12.6-16.8l1.9-2.6 1.8.4-1.7 2.9-2-.7zm14 214.1l3.5 2-3 1.7-.5-3.7zm5 2l1.6-2 4.1 1.6-2.2 2.8-3.6-2.5zm4.2 2.7l2.6-3 2.3 1-1.7 4.4-3.2-2.4zm3.9 2.6l2-4.6 8.7 2.7-6.7 4-4-2.1zm5.8-277.5l6.2-3 2.3.7 4-.3 2-3-2.7-2 .3-1.7 6 2.6 4.2-.2 5.5-1.2 2.3-4-3.4 1 .7-3.6-2.9-1.1-1.8-1.8-4.1-.2-4.3 3-2.7-2.3 4.4-.6.7-1.2-2.4-2.8 6.2 1.4.3-4.3 2.1 2.7 2-1.1 1 4 3.5 1.7 3.2-4.1-.7 5 2.7-1.4 1.8 3 2-2.5-1-2.1-2.2-1.5 1.6-6.6 3 2.8L338 90l.5 2 3.2 1.3 1.8 5.6 1.7 1-3.6 6.3-6.5 6.4-3.2.6-1.1-1.7-3.5 3.3-2.4-1.9-4.8-1.2-.7 2-2.2-.8-2.6 1.8.5 2-.8 6.5 1 2.7-.9 3.4-1-9.7-2.5-1.2-2.9 6.6-.1 2-2.6 4.8-.9-1.2 2-2.1 1.5-8.5-3.2-1.7 5.8-3.1-.5-2.8-10 1.7v-.7zm1 273l2.8-2.7 2 .9-.7 3.6-4.1-1.7zm5.4-228.3l3.3-.4 2.2-1.6 4.8-1.7 1.4-4.4-3.5-.8-1.8-1.4 1-2.7 6.7 1.2v-3l2.4-.8 2-7.8 1.7 11.1 3.4-2.8 3 6.5 1.8-1 4.4.4 1.3-2.5 4.4-6 2.7.6 1.7 3 1 7.2-1.3 3.4 1.2 5.4-4.2-5.7-.5 3.6-1.8-1.9-2 .3.3 3.3-2.2-.3-1.9 3.4-3.2-.6.8-3.5-3 1.1-8.5 6.6-1 1.5-5-2 5.8-3 .5-2.5 2-.1 4.3-3 1.8-2.6-.6-2-5.5 1 .6-2.3-2-.5-1.3 2.4-1.7-3.2-1.7 3.2v2l-2.7 2.1-4.4.4-3.7 1.5-3-1.1zm5.4 15.9l1.3-.7 2 5-1.1.6-2.2-5zm37.3 6.6v-1.6l5.9 4.5 1.6-4.2 1.1 4 4 1.3 3.1-1.8 5.8.1 2.5 1.4 1.7-.6-.6-3.7-3.9-1.1 5.3-3-.7 2.6 1.8 2v3.3l4.8-.5 1.7 3.4-4.8 2-3.3-1.4-.5 2-5.4-3.7-6.8 1-1.3 3.6-3.6 3.1 2.1-5.6-3.3-1-5-2.2.3-1.7-2.5-2.2zm8.5-74.6l2-.7 3.1.5 3.6-2 6.2-1.7 2-7.5 6.8-3.2 2.1 1.9 5 .1 4.6 2.7 5.8-1.6 1.1-2 2.9-1.4L400 87l3-1.8 2.5.6 1.2-1.3 1.4-5 3.8-3 1.6-4.7 8.8 4.1-3 6.6-18.8 17.6-4 1.5-.1 5.1-.9.5-3.5-3.3-1 4-2.4 2.2-3.9.3-3.9-2.2 2.1-2.3-2.4-1.9v-2.1l4-3.4-1.4-1-6.3 1.6-3.5 4.4-1-.7-6 1.6-4.3 2.2-4.5-.5zm42.7-18.2l2.3 1 2.2-2.7-1.2-.7-3.3 2.4zm-15.1 228.5v-1.7l5.3-.4-.2 3.9-1.5.8-3.6-2.6zm6.9 3.8l2.4-2.6 3-2 1.8 2.2-5.1 5.2-2.1-2.8zm2.2-113l7-.6 9.2 1.1-16.2-.5zm33.3-65.7l4.7-1.6 4.2.1 4.7-5.4 1.4-4.8 4-3.7 1.5-5.6-.3-4 5.2-5.2 2.4-9.7 6.5-5 5.2-6.5-2.4-3-7.5-1.3-5.7-2.7-3 .4-1.4 6.7-3.3-.7 3-4.3-8.2-6-1.8-4.6-4.8-2.8.6-.7 9.6 8.4 7.7 2.4 5-7.5.8.5-4.8 7 7.1 3 13 2.1-2.9 5.8 9 3 1.7-1.5-.2-4.2 4.7 1.3 2.5 2 .3 3.3 3.7 1.3 16 12.4 4.9-3.5-1.7-1.8-.5-2.5-4.2-2.4-6-5.4-3.2-6-.8-4.4 1.2-.1 2.1 6.2 3.2 4.7 4.6 2.6 3 3.2 5 1 2.5 3 .4 2.8-7.4 2.7-6.7 5.6-8.3 12.2-1.7.6-4.1-1-4.5 1-1.6 1.6-.5 10.6-4.1 5.8-3.2 7.1h-.7l2.8-6.7 3.5-4.3 1-6.1-.9-1.5 1.2-5.6 2.8-2.3 4.2-.8 4 .8 1.8-1 3.3-6.9 7.9-9-7-6.3-12-7.4-1-4-2.5-1.7-3.8-.5-.7 5.7-5.8-2.7-4.9-.1-4.5 4.8-5 3-4.5 12.5-4.4 2.8-.3 4.6-2 4.9-4.3 4.2-.3 3.3-5.6 6.6-4.3-.2-4.6 1.4zm74.4 45.1l1.2-2.4 7.8-1.7.3 2.2 4.5.6 1.4 3.4 3.1 1.5.8 3-1 .8-6-1.9-3.8 1-5.2-1.2-3-5.3zm.7-10.3l2.7-4.9 3.1.2 2.5 1.9-1.4 4.3-2.6 2.2-2.4.1-1.9-3.8zM537 88.1l4.6-1.3 2.5 1.2 4.7-.5-2.2 3.6-3-2-4 1-2.6-2zm10-40l2.3.3 1.3-2.6 1.9 2.1L549 49l-2-1zm2 35.7l2.2-2.3 1.4 2.4-2.2 1.1-1.3-1.2zm3.2 13.2l3-3.2 3.8-1-4.4 5.3-2.4-1.1zm14 5l2.8-1.2v2.7l-2.8-1.5zm14.1 86l2.2-5.3 1 .5-2.3 6.7-.9-2zm14.8-101.1l1-3 1.4.2 2.6-2.2 1.8 2-3.8 3.2-3-.2zm75.4-4.8l2.8 2 3.3-5 1.8.5 1.8-1.3 6 1.7-2.7 2.3-3.8.8-.4 2.8.5 3.3 5 1.5-1.9 1.9-5-2.6-2.8 1.3-2-.4-2.4-3-.2-5.8zm18.4 365l2.1 1.1h6l-1 3.2-2.1-2.7-3.6 2.4-1.4-4zm63.7-12.1l1.8-3 2.3-1 1.8 1.4 6.5-2.4 4 1-8.6 2.3-.4 6.5-2-.1 1.8-3.2-1-2.2-2.8 1.7-3.4-1z"/>
</svg>
