<?xml version="1.0" encoding="UTF-8" standalone="no"?>
<!DOCTYPE svg PUBLIC "-//W3C//DTD SVG 1.1//EN" "http://www.w3.org/Graphics/SVG/1.1/DTD/svg11.dtd">
<svg width="100%" height="100%" viewBox="0 0 16 16" version="1.1" xmlns="http://www.w3.org/2000/svg" xmlns:xlink="http://www.w3.org/1999/xlink" xml:space="preserve" xmlns:serif="http://www.serif.com/" style="fill-rule:evenodd;clip-rule:evenodd;stroke-linejoin:round;stroke-miterlimit:1.41421;">
    <g transform="matrix(1,0,0,0.75,0,1)">
        <rect x="0" y="0" width="1" height="8" style="fill:rgb(0,235,235);"/>
    </g>
    <g transform="matrix(1,0,0,0.75,4,1)">
        <rect x="0" y="0" width="1" height="8" style="fill:rgb(0,235,235);"/>
    </g>
    <g transform="matrix(1,0,0,0.75,8,1)">
        <rect x="0" y="0" width="1" height="8" style="fill:rgb(0,235,235);"/>
    </g>
    <g transform="matrix(1,0,0,0.75,12,1)">
        <rect x="0" y="0" width="1" height="8" style="fill:rgb(0,235,235);"/>
    </g>
    <g transform="matrix(1,0,0,0.75,2,9)">
        <rect x="0" y="0" width="1" height="8" style="fill:rgb(0,235,235);"/>
    </g>
    <g transform="matrix(1,0,0,0.75,6,9)">
        <rect x="0" y="0" width="1" height="8" style="fill:rgb(0,235,235);"/>
    </g>
    <g transform="matrix(1,0,0,0.75,10,9)">
        <rect x="0" y="0" width="1" height="8" style="fill:rgb(0,235,235);"/>
    </g>
    <g transform="matrix(1,0,0,0.75,14,9)">
        <rect x="0" y="0" width="1" height="8" style="fill:rgb(0,235,235);"/>
    </g>
</svg>
